<svg xmlns="http://www.w3.org/2000/svg" xmlns:xlink="http://www.w3.org/1999/xlink" version="1.1" x="0px" y="0px" viewBox="0 0 100 125" enable-background="new 0 0 100 100" xml:space="preserve"><path d="M73.988,56.814c-0.54-0.271-1.102-0.297-1.614-0.08c-0.316,0.134-0.591,0.35-0.828,0.6c0.499-4.398,0.859-8.14,0.658-10.507  c-0.385-4.529-1.925-12.733-7.924-16.793c-5.433-3.678-8.387-4.679-14.187-4.784l0-0.008c-0.05,0.001-0.097,0.003-0.147,0.004  c-0.011,0-0.021-0.001-0.032-0.001v0.002c-5.803,0.106-8.758,1.107-14.194,4.787c-5.993,4.057-7.533,12.261-7.917,16.791  c-0.201,2.366,0.159,6.11,0.658,10.508c-0.237-0.251-0.512-0.467-0.829-0.601c-0.516-0.217-1.074-0.191-1.615,0.08  c-1.714,0.856-1.346,4.315-1.077,6.842c0.074,0.698,0.139,1.302,0.12,1.579c-0.1,1.498,0.197,6.203,2.788,8.103  c1.198,0.877,1.882,1.222,2.329,1.288c0.003,0.042,0.007,0.084,0.009,0.126c0.368,6.262,1.706,9.544,3.695,11.896l-0.389,8.153  l0.999,0.047l0.343-7.186c1.025,0.995,2.18,1.857,3.44,2.789c0.712,0.526,1.459,1.079,2.236,1.697  c3.925,3.128,6.036,3.604,7.681,3.604c0.367,0,0.711-0.024,1.047-0.047c0.247-0.017,0.488-0.029,0.732-0.034  c0.266,0.003,0.527,0.018,0.795,0.037c0.336,0.022,0.68,0.047,1.047,0.047c1.646,0,3.756-0.476,7.682-3.604  c0.776-0.618,1.523-1.171,2.235-1.697c1.26-0.933,2.415-1.795,3.44-2.79l0.343,7.186l0.998-0.047l-0.389-8.153  c1.989-2.353,3.327-5.634,3.695-11.897c0.003-0.042,0.007-0.084,0.009-0.126c0.447-0.066,1.131-0.411,2.329-1.288  c2.59-1.897,2.888-6.604,2.788-8.103c-0.019-0.277,0.046-0.881,0.12-1.579C75.334,61.13,75.703,57.67,73.988,56.814z M26.06,65.298  c0.024-0.363-0.041-0.977-0.124-1.752c-0.183-1.719-0.564-5.294,0.529-5.841c0.282-0.142,0.529-0.159,0.776-0.054  c0.724,0.306,1.251,1.536,1.394,1.984l0.088-0.028c0.013,0.111,0.025,0.216,0.038,0.328c0.486,4.17,1.021,8.859,1.341,13.628  c-0.255-0.105-0.752-0.37-1.662-1.036C26.173,70.866,25.985,66.403,26.06,65.298z M30.042,74.014  c-0.007-0.115,0.033-0.19,0.076-0.245c0.005,0.08,0.012,0.159,0.017,0.239L30.042,74.014z M61.137,89.647  c-0.721,0.534-1.478,1.094-2.264,1.721c-4.5,3.584-6.38,3.454-8.037,3.34c-0.247-0.017-0.49-0.027-0.735-0.033v-0.012  c-0.043,0-0.086,0.005-0.129,0.006c-0.022,0-0.043-0.003-0.065-0.003v0.006c-0.245,0.006-0.488,0.016-0.735,0.033  c-1.66,0.115-3.54,0.244-8.037-3.34c-0.787-0.627-1.543-1.187-2.264-1.721c-4.284-3.17-7.115-5.264-7.685-14.954  c-0.306-5.206-0.904-10.34-1.431-14.869c-0.637-5.468-1.186-10.189-0.956-12.912c0.369-4.352,1.832-12.223,7.481-16.047  c5.307-3.593,8.024-4.515,13.665-4.616c5.72,0.09,8.433,1,13.775,4.616c5.865,3.97,7.19,12.546,7.488,16.049  c0.23,2.724-0.319,7.445-0.955,12.912c-0.527,4.53-1.125,9.664-1.432,14.87C68.251,84.383,65.421,86.477,61.137,89.647z   M69.872,74.011c0.005-0.08,0.012-0.159,0.017-0.24c0.043,0.055,0.083,0.131,0.076,0.245L69.872,74.011z M74.071,63.549  c-0.083,0.775-0.148,1.389-0.124,1.752c0.073,1.104-0.115,5.568-2.382,7.229c-0.91,0.667-1.407,0.931-1.661,1.036  c0.32-4.77,0.856-9.458,1.342-13.628c0.013-0.111,0.025-0.217,0.038-0.327l0.087,0.027c0.143-0.448,0.671-1.679,1.394-1.984  c0.249-0.104,0.495-0.087,0.776,0.054C74.635,58.255,74.254,61.832,74.071,63.549z"/><path d="M54.644,28.328c-2.74-0.732-4.044-0.23-4.64,0.248c-0.599-0.477-1.914-0.977-4.693-0.237  c-3.865,1.03-7.861,2.096-11.324,6.729c-3.498,4.679-4.444,14.035-3.217,15.829c0.358,0.523,0.956,0.717,1.702,0.717  c1.024,0,2.329-0.365,3.676-0.742c1.354-0.379,2.75-0.772,3.447-0.62c1.732,0.376,8.077,0.429,9.913,0.436v0.004h0.5  c0.343,0,8.417-0.005,10.406-0.437c0.685-0.153,2.092,0.241,3.447,0.62c1.347,0.376,2.65,0.742,3.675,0.742  c0.746,0,1.344-0.193,1.702-0.717c1.227-1.793,0.281-11.149-3.217-15.829C62.557,30.438,58.561,29.372,54.644,28.328z   M63.344,49.695c-0.609-0.165-1.188-0.305-1.715-0.389c0.375-1.107,0.953-3.475-0.048-5.453c0.508,0.085,1.113,0.158,1.697,0.158  c0.371,0,0.732-0.031,1.053-0.106c0.364,1.228,0.554,2.475,0.281,2.815c-0.341,0.426-0.494,0.983-0.643,1.521  C63.819,48.79,63.664,49.306,63.344,49.695z M36.036,48.238c-0.148-0.538-0.301-1.095-0.642-1.521  c-0.273-0.341-0.082-1.587,0.281-2.815c0.321,0.075,0.682,0.106,1.054,0.106c0.584,0,1.19-0.073,1.698-0.158  c-1.002,1.977-0.424,4.343-0.049,5.451c-0.526,0.084-1.107,0.226-1.715,0.39C36.343,49.303,36.187,48.787,36.036,48.238z   M33.719,37.407c0.499-0.404,1.566-1.214,2.638-1.678c0.134-0.058,0.266-0.097,0.396-0.134c-0.252,0.804-0.503,1.581-0.728,2.218  c-0.008,0.001-0.021,0.009-0.028,0.009c-0.004,0-0.009,0-0.013,0c-0.606-0.053-1.299,0.295-1.913,0.948  c-0.739,0.788-1.447,2.182-1.216,3.735c0.14,0.938-0.009,1.831-0.16,2.695c-0.578,0.158-1.018,0.467-1.347,0.833  C31.613,43.373,32.372,40.027,33.719,37.407z M37.966,34.209c0.287-0.936,0.542-1.763,0.706-2.235  c0.787-0.507,1.593-0.911,2.413-1.252c0.095,0.172,0.234,0.355,0.435,0.558c0.303,0.306-0.5,1.599-1.42,2.551l0,0  c-0.357,0.308-0.733,0.687-1.127,1.11c-0.249-0.088-0.656-0.2-1.164-0.222C37.862,34.548,37.915,34.377,37.966,34.209z   M48.295,32.507c0.403,0.314,0.792,0.61,1.205,0.755v4.075c-0.689-0.407-1.699-1.05-2.292-1.642  c-0.348-0.348-0.495-0.791-0.637-1.218c-0.188-0.566-0.444-1.314-1.302-1.454c-0.057-0.401-0.073-0.966,0.166-1.281  c0.131-0.173,0.343-0.257,0.638-0.262c0.075,0.017,0.153,0.026,0.233,0.026C47.077,31.584,47.699,32.043,48.295,32.507z   M53.7,31.509c0.08-0.001,0.158-0.009,0.234-0.026c0.295,0.005,0.506,0.088,0.637,0.26c0.241,0.317,0.224,0.878,0.165,1.282  c-0.858,0.14-1.114,0.888-1.302,1.454c-0.142,0.428-0.288,0.871-0.637,1.219c-0.592,0.592-1.602,1.235-2.291,1.642v-4.075  c0.413-0.145,0.801-0.44,1.204-0.754C52.307,32.046,52.93,31.587,53.7,31.509z M58.486,31.283c0.201-0.204,0.34-0.387,0.435-0.56  c0.819,0.34,1.624,0.744,2.412,1.252c0.164,0.471,0.418,1.297,0.705,2.231c0.052,0.17,0.105,0.343,0.158,0.515  c-0.508,0.023-0.915,0.134-1.164,0.222c-0.396-0.427-0.775-0.808-1.134-1.117C58.982,32.876,58.183,31.589,58.486,31.283z   M35.918,39.893c0.218,0.114,0.513,0.193,0.91,0.231c-0.036,0.068-0.085,0.141-0.113,0.206c-0.486,1.134-1.392,2.327-1.401,2.339  l-0.054,0.097c-0.002,0.006-0.007,0.02-0.01,0.027C34.961,41.737,35.388,40.869,35.918,39.893z M40.637,34.35l0.002,0.002  c0.007-0.007,0.018-0.019,0.026-0.027c0.414-0.354,0.773-0.578,0.967-0.49c0.074,0.034,0.085,0.064,0.092,0.102  c0.09,0.513-1.026,1.974-2.114,3.033c-0.107,0.096-1.457,1.31-2.313,2.433c-0.648-0.02-0.93-0.109-1.036-0.161  c0.11-0.226,0.234-0.532,0.37-0.904c0.563-0.347,1.245-1.072,2.154-2.08C39.307,35.679,40.03,34.876,40.637,34.35z M43.884,34.896  c0.466-0.624,0.887-0.902,1.098-0.902c0.331,0,0.409,0.097,0.642,0.798c0.162,0.488,0.363,1.095,0.878,1.611  c0.861,0.861,2.393,1.752,2.999,2.088v1.184c-0.195-0.109-0.417-0.203-0.698-0.259c-0.732-0.146-1.604-0.034-2.374,0.063  c-0.752,0.095-1.531,0.196-1.825-0.006c-0.183-0.125-0.401-0.251-0.628-0.384c-0.548-0.318-1.008-0.604-1.242-0.896  C42.543,37.508,43.076,35.974,43.884,34.896z M55.025,33.996c0.21,0,0.632,0.279,1.098,0.902c0.807,1.078,1.34,2.613,1.15,3.299  c-0.234,0.292-0.694,0.578-1.242,0.896c-0.228,0.132-0.445,0.259-0.628,0.384c-0.294,0.199-1.071,0.101-1.825,0.005  c-0.768-0.098-1.637-0.208-2.374-0.063c-0.281,0.056-0.503,0.15-0.697,0.258v-1.184c0.605-0.337,2.138-1.227,2.998-2.088  c0.516-0.516,0.717-1.123,0.879-1.611C54.616,34.093,54.694,33.996,55.025,33.996z M60.017,37.642  c0.424,0.386,1.147,1.084,1.74,1.774c-0.384,0.002-0.593,0.001-0.703,0.001c-0.912-0.628-2.122-1.079-2.762-1.29  c0.007-0.071,0.011-0.144,0.012-0.219L60.017,37.642z M41.715,38.124c-0.641,0.211-1.85,0.661-2.761,1.289  c-0.11,0.001-0.318,0.001-0.703-0.001c0.593-0.69,1.315-1.387,1.739-1.774l1.713,0.266C41.704,37.98,41.708,38.053,41.715,38.124z   M36.197,39.378L36.197,39.378L36.197,39.378L36.197,39.378z M35.95,43.07c0.187-0.251,0.984-1.349,1.454-2.445  c0.06-0.14,0.157-0.299,0.27-0.466c0.23,0.002,0.44,0.003,0.614,0.003c-0.477,0.95-0.327,2.299-0.206,2.977  c-0.815,0.117-1.623,0.148-2.171,0.043C35.93,43.13,35.94,43.101,35.95,43.07z M39.023,42.967c-0.067,0.015-0.132,0.03-0.2,0.044  c-0.151-0.852-0.25-2.365,0.452-2.903c0.087-0.024,0.13-0.061,0.155-0.108c0.79-0.532,1.838-0.932,2.444-1.136  c0.23,0.97,0.409,2.387,0.507,3.271c-0.502-0.151-1.038-0.229-1.57-0.157C40.11,42.074,39.514,42.412,39.023,42.967z M43.432,42.574  c-0.058-0.586-0.21-1.994-0.431-3.195c0.199,0.128,0.403,0.247,0.598,0.36c0.211,0.123,0.414,0.24,0.583,0.355  c0.529,0.361,1.369,0.254,2.343,0.129c0.746-0.096,1.518-0.194,2.133-0.072c0.475,0.094,0.717,0.302,0.844,0.512v2.687  c-2.169,0.229-4.568,0.283-4.953-0.009C44.286,43.109,43.897,42.825,43.432,42.574z M50.507,40.676  c0.126-0.213,0.365-0.427,0.844-0.522c0.614-0.122,1.388-0.023,2.133,0.072c0.973,0.124,1.812,0.231,2.342-0.129  c0.17-0.115,0.372-0.232,0.583-0.354c0.194-0.113,0.399-0.232,0.598-0.36c-0.221,1.201-0.373,2.608-0.432,3.194  c-0.464,0.251-0.853,0.535-1.113,0.765c-0.387,0.293-2.785,0.24-4.955,0.011V40.676z M58.133,38.867  c0.606,0.204,1.654,0.604,2.445,1.136c0.025,0.047,0.068,0.084,0.155,0.108c0.699,0.536,0.601,2.051,0.451,2.903  c-0.068-0.014-0.133-0.029-0.2-0.044c-0.492-0.555-1.088-0.893-1.788-0.989c-0.532-0.074-1.067,0.004-1.569,0.155  C57.725,41.252,57.904,39.836,58.133,38.867z M61.719,40.166c0.175,0,0.384-0.001,0.615-0.003c0.112,0.167,0.209,0.326,0.269,0.465  c0.47,1.098,1.27,2.197,1.455,2.446c0.009,0.03,0.02,0.059,0.038,0.111c-0.548,0.105-1.355,0.073-2.171-0.043  C62.046,42.464,62.196,41.115,61.719,40.166z M64.756,42.793c-0.002-0.006-0.007-0.019-0.009-0.025l-0.054-0.097  c-0.009-0.012-0.916-1.205-1.401-2.338c-0.028-0.064-0.077-0.138-0.113-0.206c0.396-0.039,0.692-0.118,0.91-0.232  C64.619,40.871,65.045,41.739,64.756,42.793z M63.81,39.381c0-0.001,0-0.001-0.001-0.002C63.809,39.379,63.809,39.38,63.81,39.381  L63.81,39.381L63.81,39.381z M63.747,39.248c-0.103,0.049-0.388,0.139-1.038,0.158c-0.856-1.123-2.206-2.337-2.313-2.433  c-1.087-1.059-2.205-2.519-2.114-3.033c0.007-0.037,0.018-0.068,0.092-0.102c0.196-0.088,0.565,0.147,0.99,0.514  c0.001,0.001,0.003,0.003,0.004,0.004l0,0c0.607,0.525,1.332,1.327,1.854,1.906c0.915,1.015,1.593,1.753,2.159,2.096  C63.516,38.723,63.639,39.024,63.747,39.248z M62.897,36.947c-0.392-0.392-0.804-0.839-1.118-1.187  c-0.062-0.068-0.121-0.133-0.181-0.2c0.221-0.053,0.507-0.091,0.832-0.085C62.587,35.981,62.744,36.477,62.897,36.947z   M59.36,36.985l-1.131,0.176c-0.19-0.981-0.716-2.074-1.306-2.862c-0.353-0.471-0.861-1.008-1.436-1.213  c0.07-0.504,0.086-1.262-0.318-1.794c-0.015-0.019-0.038-0.039-0.054-0.059c0.02,0.001,0.032-0.005,0.052-0.003  c0.589,0.045,1.763,1.244,2.537,2.217c-0.079,0.106-0.137,0.226-0.161,0.363C57.386,34.706,58.599,36.168,59.36,36.985z   M44.837,31.289c-0.403,0.532-0.387,1.29-0.318,1.794c-0.575,0.205-1.084,0.742-1.436,1.214c-0.59,0.788-1.116,1.881-1.306,2.861  l-1.13-0.176c0.762-0.816,1.974-2.279,1.816-3.175c-0.024-0.137-0.083-0.257-0.162-0.363c0.774-0.974,1.948-2.172,2.538-2.217  c0.02-0.001,0.032,0.004,0.051,0.003C44.875,31.25,44.851,31.269,44.837,31.289z M38.408,35.558c-0.06,0.066-0.118,0.13-0.179,0.197  c-0.318,0.353-0.733,0.811-1.125,1.208c0.155-0.475,0.314-0.977,0.473-1.49C37.9,35.469,38.186,35.506,38.408,35.558z   M33.598,42.394c-0.192-1.288,0.401-2.452,1.021-3.111c0.372-0.397,0.777-0.642,1.115-0.695c-0.071,0.173-0.138,0.327-0.196,0.434  l-0.185,0.34c-0.597,1.093-1.213,2.222-0.823,3.633c0.066,0.238,0.206,0.42,0.389,0.565c-0.27,0.495-0.721,1.094-1.423,1.404  C33.626,44.174,33.734,43.309,33.598,42.394z M39.494,43.984c0.387-0.603,0.862-0.935,1.452-1.016  c1.192-0.164,2.523,0.753,2.937,1.12c0.755,0.672,3.848,0.457,5.617,0.271v3.119c-0.99-0.064-2.89-0.14-3.554,0.153  c-0.143,0.063-0.311,0.15-0.495,0.247c-0.927,0.484-1.801,0.875-2.334,0.342l-0.254-0.257c-0.905-0.919-2.355-2.383-3.87-2.745  C39.089,44.789,39.246,44.37,39.494,43.984z M50.507,44.362c1.769,0.187,4.861,0.401,5.617-0.271  c0.412-0.366,1.739-1.287,2.937-1.12c0.591,0.081,1.065,0.414,1.453,1.016c0.247,0.385,0.404,0.804,0.5,1.233  c-1.515,0.363-2.965,1.826-3.869,2.745l-0.254,0.257c-0.535,0.532-1.408,0.143-2.336-0.343c-0.184-0.097-0.351-0.184-0.494-0.247  c-0.665-0.292-2.564-0.215-3.554-0.152V44.362z M64.655,39.367l-0.184-0.339c0-0.001-0.001-0.002-0.001-0.003l0,0  c-0.057-0.107-0.124-0.259-0.195-0.433c0.334,0.054,0.743,0.299,1.114,0.694c0.619,0.659,1.213,1.823,1.021,3.111  c-0.136,0.915-0.029,1.78,0.103,2.571c-0.699-0.31-1.151-0.91-1.421-1.405c0.182-0.144,0.321-0.326,0.387-0.563  C65.868,41.588,65.252,40.459,64.655,39.367z M67.311,45.202c-0.151-0.864-0.3-1.757-0.16-2.695  c0.231-1.553-0.477-2.947-1.216-3.735c-0.614-0.654-1.315-1-1.913-0.948c-0.01,0.001-0.029-0.011-0.04-0.012  c-0.227-0.642-0.48-1.423-0.728-2.214c0.13,0.037,0.261,0.076,0.395,0.134c1.072,0.464,2.139,1.274,2.638,1.678  c1.347,2.62,2.106,5.966,2.371,8.626C68.329,45.668,67.889,45.36,67.311,45.202z M65.22,35.669c0.023,0.031,0.043,0.067,0.066,0.098  c-0.418-0.264-0.872-0.522-1.337-0.724c-0.33-0.143-0.646-0.218-0.949-0.266c-0.084-0.271-0.166-0.538-0.243-0.79  c-0.146-0.476-0.276-0.896-0.395-1.275C63.343,33.481,64.298,34.436,65.22,35.669z M58.215,30.445  c-0.053,0.078-0.127,0.174-0.261,0.31c-0.506,0.511-0.24,1.32,0.199,2.05c-0.658-0.808-1.955-2.249-2.926-2.323  c-0.553-0.044-0.943,0.097-1.229,0.199c-0.068,0.024-0.115,0.04-0.159,0.054c-0.061,0.002-0.12,0.008-0.179,0.013  c-0.038-0.017-0.071-0.05-0.122-0.117c-0.225-0.3-0.161-1.006-0.052-1.537c0.291,0.053,0.607,0.122,0.954,0.215  C55.723,29.651,56.984,29.99,58.215,30.445z M52.741,28.994c-0.112,0.554-0.19,1.374,0.116,1.935  c-0.63,0.235-1.156,0.639-1.606,0.989c-0.269,0.209-0.515,0.395-0.744,0.524v-2.967C50.662,29.301,51.224,28.859,52.741,28.994z   M49.5,29.472v2.966c-0.229-0.129-0.475-0.314-0.744-0.524c-0.45-0.35-0.976-0.754-1.606-0.989c0.307-0.562,0.228-1.386,0.115-1.941  c0.195-0.018,0.38-0.029,0.544-0.029C48.924,28.957,49.364,29.319,49.5,29.472z M45.621,29.291c0.329-0.088,0.623-0.149,0.901-0.2  c0.109,0.531,0.173,1.236-0.052,1.536c-0.05,0.066-0.082,0.1-0.121,0.117c-0.059-0.005-0.118-0.011-0.179-0.013  c-0.044-0.014-0.091-0.03-0.16-0.054c-0.285-0.102-0.673-0.242-1.228-0.199c-0.972,0.075-2.271,1.517-2.928,2.325  c0.439-0.73,0.706-1.54,0.2-2.051c-0.133-0.135-0.208-0.231-0.26-0.308C43.036,29.983,44.314,29.64,45.621,29.291z M37.645,32.71  c-0.119,0.381-0.249,0.801-0.396,1.279c-0.078,0.255-0.159,0.518-0.241,0.785c-0.303,0.048-0.619,0.124-0.949,0.267  c-0.466,0.202-0.921,0.46-1.338,0.724c0.023-0.031,0.043-0.067,0.066-0.098C35.708,34.434,36.663,33.479,37.645,32.71z   M31.595,50.332c-0.255-0.373-0.374-1.322-0.352-2.578c0.166-0.536,0.532-1.332,1.314-1.707c-0.117,0.842-0.126,1.629,0.315,2.303  c0.533,0.813,0.686,1.644,0.729,2.126C32.655,50.655,31.844,50.696,31.595,50.332z M34.341,50.315  c-0.063-0.579-0.256-1.483-0.842-2.377c-0.357-0.546-0.283-1.292-0.141-2.148c0.502-0.137,0.919-0.372,1.258-0.664  c-0.136,0.817-0.154,1.629,0.191,2.06c0.245,0.306,0.371,0.765,0.505,1.251c0.133,0.484,0.29,1.007,0.579,1.467  c-0.005,0.001-0.01,0.003-0.015,0.004C35.397,50.042,34.865,50.188,34.341,50.315z M39.806,49.273  c-0.122-0.027-0.255-0.042-0.394-0.049c-0.211-0.571-0.623-1.898-0.527-3.265c1.279,0.336,2.61,1.682,3.443,2.528l0.259,0.261  c0.348,0.348,0.753,0.476,1.168,0.476c0.738,0,1.507-0.403,2.044-0.684c0.167-0.087,0.319-0.167,0.449-0.225  c0.439-0.192,2.067-0.162,3.252-0.088v1.458C47.677,49.678,41.419,49.624,39.806,49.273z M60.2,49.276  c-1.612,0.351-7.87,0.405-9.693,0.413v-1.458c1.184-0.075,2.812-0.106,3.252,0.088c0.13,0.057,0.281,0.137,0.448,0.224  c0.538,0.282,1.307,0.685,2.045,0.685c0.415,0,0.82-0.127,1.169-0.476l0.258-0.261c0.832-0.846,2.163-2.191,3.441-2.528  c0.095,1.375-0.321,2.712-0.53,3.276C60.456,49.246,60.319,49.251,60.2,49.276z M64.114,49.907c0.289-0.46,0.447-0.982,0.58-1.466  c0.135-0.487,0.261-0.946,0.506-1.252c0.345-0.431,0.328-1.243,0.192-2.06c0.339,0.293,0.756,0.528,1.258,0.665  c0.142,0.856,0.216,1.602-0.141,2.148c-0.586,0.894-0.779,1.798-0.842,2.377c-0.524-0.126-1.056-0.272-1.537-0.407  C64.124,49.91,64.119,49.908,64.114,49.907z M68.411,50.334c-0.249,0.364-1.06,0.324-2.007,0.143  c0.043-0.479,0.195-1.307,0.731-2.126c0.442-0.674,0.433-1.461,0.315-2.302c0.781,0.375,1.147,1.169,1.313,1.705  C68.785,49.012,68.666,49.962,68.411,50.334z"/><polygon points="33.492,18.403 37.069,27.252 35.936,13.3 32.99,15.249 30.753,9.259 30.956,20.466 "/><polygon points="49.734,23.317 53.311,9.784 49.884,10.641 49.771,4.248 46.23,14.882 49.308,13.782 "/><polygon points="62.3,27.455 69.247,15.302 65.714,15.247 67.253,9.04 61.09,18.402 64.348,18.133 "/><text x="0" y="115" fill="#000000" font-size="5px" font-weight="bold" font-family="'Helvetica Neue', Helvetica, Arial-Unicode, Arial, Sans-serif">Created by emilegraphics</text><text x="0" y="120" fill="#000000" font-size="5px" font-weight="bold" font-family="'Helvetica Neue', Helvetica, Arial-Unicode, Arial, Sans-serif">from the Noun Project</text></svg>