<svg xmlns:dc="http://purl.org/dc/elements/1.1/" xmlns:cc="http://creativecommons.org/ns#" xmlns:rdf="http://www.w3.org/1999/02/22-rdf-syntax-ns#" xmlns:svg="http://www.w3.org/2000/svg" xmlns="http://www.w3.org/2000/svg" xmlns:sodipodi="http://sodipodi.sourceforge.net/DTD/sodipodi-0.dtd" xmlns:inkscape="http://www.inkscape.org/namespaces/inkscape" version="1.1" x="0px" y="0px" viewBox="0 0 100 125"><g transform="translate(0,-952.36218)"><path style="text-indent:0;text-transform:none;direction:ltr;block-progression:tb;baseline-shift:baseline;color:#000000;enable-background:accumulate;" d="m 50,976.36216 c -14.3475,0 -26,11.65255 -26,26.00004 0,14.3473 11.6525,26 26,26 14.3476,0 26,-11.6527 26,-26 0,-14.34749 -11.6524,-26.00004 -26,-26.00004 z m 0,2 c 13.2667,0 24,10.73345 24,24.00004 0,13.2664 -10.7333,24 -24,24 -13.2666,0 -24,-10.7336 -24,-24 0,-13.26659 10.7333,-24.00004 24,-24.00004 z m 0,8.00005 c -0.5523,0 -1,0.4477 -1,1 l 0,14.99999 c 0,0.3746 0.2263,0.6724 0.5313,0.8437 3.5904,2.1756 7.4976,4.3813 11.2187,6.5313 0.4783,0.2761 1.0988,0.1032 1.375,-0.375 0.2761,-0.4784 0.1032,-1.0989 -0.375,-1.375 L 51,1001.7684 51,987.36221 c 0,-0.5523 -0.4477,-1 -1,-1 z" fill="#000000" fill-opacity="1" stroke="none" marker="none" visibility="visible" display="inline" overflow="visible"/></g><text x="0" y="115" fill="#000000" font-size="5px" font-weight="bold" font-family="'Helvetica Neue', Helvetica, Arial-Unicode, Arial, Sans-serif">Created by Alfa Design</text><text x="0" y="120" fill="#000000" font-size="5px" font-weight="bold" font-family="'Helvetica Neue', Helvetica, Arial-Unicode, Arial, Sans-serif">from the Noun Project</text></svg>