<svg xmlns="http://www.w3.org/2000/svg" xmlns:xlink="http://www.w3.org/1999/xlink" version="1.1" x="0px" y="0px" viewBox="0 0 100 125" style="enable-background:new 0 0 100 100;" xml:space="preserve"><path d="M91.0085907,89.6677322H8.9914074C6.7867785,89.6677322,5,87.8809509,5,85.6763229V14.323678  c0-2.2046289,1.7867785-3.9914074,3.9914074-3.9914074s3.9914074,1.7867785,3.9914074,3.9914074v67.3612366h78.0257721  C93.2132187,81.6849136,95,83.4716949,95,85.6763229S93.2132187,89.6677322,91.0085907,89.6677322z"/><path d="M90.0089722,19.3233643L66.6234131,38.1595459l6.1279297-0.1306152  c-0.1281128,0.1970825-0.2565308,0.3946533-0.3914185,0.6021729c-0.6673584,1.1147461-1.6500244,2.1824951-2.5975952,3.4595947  c-0.9881592,1.2410889-1.982666,2.6669922-3.2648315,3.9606934c-1.2572632,1.3145752-2.486145,2.8190918-3.9367065,4.1884766  c-1.4711914,1.3421631-2.8899536,2.8763428-4.5308838,4.1965332c-1.6552124,1.2963257-3.2344971,2.7859497-5.0352783,3.96521  l-2.6227417,1.8977661c-0.8735352,0.6348267-1.809082,1.1599121-2.7052002,1.743103  c-1.7845459,1.1866455-3.6432495,2.1750488-5.4432373,3.1555176c-1.7877808,1.0065308-3.5994873,1.8182373-5.3015137,2.645813  c-1.7374878,0.7276001-3.3746338,1.4765625-4.9302979,2.0402832c-1.5422363,0.6194458-2.9846802,1.0993042-4.2711792,1.5203247  c-1.286438,0.4118042-2.4187012,0.7575073-3.3557739,1.0181885c-0.9403076,0.2521362-1.6803589,0.444519-2.1763306,0.550415  c-0.4949951,0.119873-0.784668,0.1677246-0.784668,0.1677246c-0.3870239,0.0661621-0.6869507,0.4041138-0.6867676,0.8099365  c0.0002441,0.453186,0.3677979,0.8204346,0.8209839,0.8201904c0,0,0.2879028,0.001709,0.8278198,0.0049438  c0.5564575,0.0031738,1.350647-0.0268555,2.3609619-0.0733643c1.0078735-0.0648193,2.2379761-0.1326904,3.6357422-0.3069458  c1.3967896-0.175293,2.9779663-0.3826294,4.6843872-0.7112427c1.7285156-0.2576904,3.5421143-0.7550049,5.4967651-1.2045288  c1.9161377-0.5527954,3.9735107-1.0854492,6.038269-1.8192749c2.0613403-0.7437134,4.2044678-1.5125122,6.3019409-2.4892578  c1.0521851-0.4788818,2.1494141-0.9029541,3.190979-1.4420166c1.0432739-0.5426636,2.0906372-1.0874634,3.1380615-1.6322632  c2.1293335-1.0494385,4.0549927-2.430603,6.0621338-3.6398315c1.9928589-1.2329102,3.7710571-2.7025757,5.5986938-4.001709  c0.9258423-0.6387329,1.7398071-1.3765869,2.5453491-2.0917969c0.8084717-0.7147217,1.5994263-1.4139404,2.3694458-2.0946045  c1.5905762-1.3197021,2.8740234-2.7788086,4.1332397-4.0640259c1.2171021-1.3191528,2.4536743-2.4435425,3.3377075-3.604126  c0.6633911-0.8171387,1.2628784-1.555542,1.7950439-2.2110596l3.4494629,5.7574463L90.0089722,19.3233643z"/><text x="0" y="115" fill="#000000" font-size="5px" font-weight="bold" font-family="'Helvetica Neue', Helvetica, Arial-Unicode, Arial, Sans-serif">Created by Mourad Mokrane</text><text x="0" y="120" fill="#000000" font-size="5px" font-weight="bold" font-family="'Helvetica Neue', Helvetica, Arial-Unicode, Arial, Sans-serif">from the Noun Project</text></svg>