<svg xmlns="http://www.w3.org/2000/svg" xmlns:xlink="http://www.w3.org/1999/xlink" version="1.1" x="0px" y="0px" viewBox="0 0 100 125" enable-background="new 0 0 100 100" xml:space="preserve"><g display="none"><g display="inline"><path fill="#000000" d="M24.836,48.036c0-3.888,2.665-6.697,6.48-6.697c3.816,0,6.409,2.736,6.409,6.697    c0,3.815-2.593,6.624-6.48,6.624C27.5,54.66,24.836,51.852,24.836,48.036z"/><path fill="#000000" d="M43.556,48.036c0-3.888,2.664-6.697,6.48-6.697s6.408,2.736,6.408,6.697c0,3.815-2.592,6.624-6.48,6.624    C46.22,54.66,43.556,51.852,43.556,48.036z"/><path fill="#000000" d="M62.275,48.036c0-3.888,2.664-6.697,6.48-6.697s6.408,2.736,6.408,6.697c0,3.815-2.592,6.624-6.48,6.624    C64.939,54.66,62.275,51.852,62.275,48.036z"/></g></g><g display="none"><g display="inline"><path fill="#000000" d="M44.63,57.139l-0.061-1.561c-0.18-3.059,0.841-6.179,3.54-9.418c1.919-2.28,3.48-4.2,3.48-6.24    c0-2.1-1.379-3.48-4.379-3.6c-1.98,0-4.38,0.72-5.94,1.8l-2.04-6.54c2.16-1.26,5.76-2.459,10.02-2.459    c7.919,0,11.519,4.379,11.519,9.359c0,4.56-2.82,7.56-5.1,10.08c-2.221,2.46-3.119,4.8-3.061,7.499v1.08H44.63z M43.07,65.418    c0-3.18,2.22-5.459,5.339-5.459c3.241,0,5.34,2.279,5.401,5.459c0,3.121-2.16,5.461-5.401,5.461    C45.23,70.879,43.07,68.539,43.07,65.418z"/></g></g><g display="none"><g display="inline"><path fill="#000000" d="M44.63,64.089c0-3.18,2.22-5.459,5.4-5.459c3.181,0,5.28,2.279,5.339,5.459c0,3.121-2.1,5.461-5.339,5.461    C46.791,69.55,44.63,67.21,44.63,64.089z M46.61,55.63l-1.38-27.18h9.539l-1.32,27.18H46.61z"/></g></g><g display="none"><g display="inline"><path fill="#000000" d="M59.419,68.72c-3.6,1.619-6.72,2.159-10.979,2.159c-9.96,0-18.719-7.14-18.719-18.899    c0-12.239,8.879-22.858,22.439-22.858c10.559,0,18.119,7.26,18.119,17.339c0,8.76-4.92,14.279-11.4,14.279    c-2.819,0-4.859-1.439-5.159-4.619H53.6c-1.859,3.059-4.56,4.619-7.74,4.619c-3.9,0-6.72-2.88-6.72-7.8    c0-7.319,5.4-13.979,14.04-13.979c2.64,0,5.64,0.659,7.14,1.499l-1.8,11.1c-0.601,3.54-0.18,5.16,1.5,5.22    c2.58,0.06,5.819-3.239,5.819-10.14c0-7.799-5.04-13.859-14.339-13.859c-9.18,0-17.22,7.2-17.22,18.66    c0,10.02,6.42,15.719,15.359,15.719c3.06,0,6.3-0.66,8.7-1.92L59.419,68.72z M54.08,43.94C53.6,43.82,53,43.7,52.22,43.7    c-3.96,0-7.08,3.9-7.08,8.52c0,2.279,1.02,3.72,3,3.72c2.22,0,4.56-2.819,5.101-6.3L54.08,43.94z"/></g></g><g display="none"><g display="inline"><path fill="#000000" d="M26.145,57.717v-2.155c-1.519-0.068-2.994-0.476-3.855-0.976l0.68-2.653    c0.953,0.521,2.292,0.998,3.765,0.998c1.293,0,2.178-0.499,2.178-1.406c0-0.862-0.727-1.407-2.404-1.974    c-2.427-0.816-4.083-1.951-4.083-4.151c0-1.997,1.406-3.562,3.833-4.038v-2.155h2.223v1.996c1.52,0.068,2.541,0.385,3.29,0.749    l-0.658,2.563c-0.59-0.25-1.634-0.771-3.266-0.771c-1.475,0-1.951,0.635-1.951,1.271c0,0.748,0.794,1.225,2.722,1.951    c2.7,0.953,3.789,2.2,3.789,4.242c0,2.018-1.43,3.742-4.038,4.196v2.313H26.145z"/><path fill="#000000" d="M42.34,45.127c0,3.085-1.951,4.695-4.083,4.695c-2.246,0-4.016-1.678-4.016-4.445    c0-2.631,1.611-4.627,4.129-4.627C40.911,40.75,42.34,42.61,42.34,45.127z M36.806,45.286c0,1.542,0.521,2.654,1.519,2.654    c0.976,0,1.452-0.998,1.452-2.654c0-1.497-0.408-2.654-1.474-2.654C37.282,42.632,36.806,43.812,36.806,45.286z M38.438,55.993    l8.461-15.244h1.86l-8.483,15.244H38.438z M52.955,51.252c0,3.084-1.949,4.695-4.083,4.695c-2.222,0-3.992-1.679-4.015-4.446    c0-2.631,1.61-4.627,4.128-4.627C51.527,46.874,52.955,48.734,52.955,51.252z M47.444,51.41c-0.023,1.544,0.5,2.654,1.497,2.654    c0.976,0,1.452-0.998,1.452-2.654c0-1.497-0.386-2.653-1.452-2.653C47.897,48.757,47.444,49.936,47.444,51.41z"/><path fill="#000000" d="M54.746,55.743v-1.837c1.201-0.499,2.539-1.792,2.539-3.336c0-0.317-0.021-0.588-0.066-0.907h-2.223    v-2.336h1.814c-0.113-0.567-0.182-1.225-0.182-1.837c0-2.858,2.086-4.741,5.127-4.741c1.246,0,2.176,0.272,2.676,0.544    l-0.566,2.608c-0.432-0.249-1.066-0.408-1.906-0.408c-1.609,0-2.109,1.043-2.109,2.132c0,0.589,0.068,1.134,0.203,1.701h3.107    v2.336H60.35c0.021,0.568-0.023,1.09-0.205,1.611c-0.205,0.567-0.566,1.135-1.111,1.611v0.045h6.057v2.813H54.746z"/><path fill="#000000" d="M68.264,55.743l0.59-4.061h-1.838v-2.086h2.201l0.363-2.541h-1.928v-2.109h2.244l0.568-3.947h2.018    l-0.566,3.947h2.064l0.59-3.947h2.018l-0.59,3.947h1.816v2.109h-2.133l-0.363,2.541h1.883v2.086h-2.223l-0.566,4.061h-2.043    l0.566-4.061h-2.063l-0.568,4.061H68.264z M73.301,49.596l0.361-2.541h-2.064l-0.361,2.541H73.301z"/><path fill="#000000" d="M79.65,53.929c0-1.202,0.84-2.064,2.041-2.064c1.203,0,1.996,0.862,2.02,2.064    c0,1.179-0.795,2.064-2.02,2.064S79.65,55.107,79.65,53.929z M80.398,50.729l-0.521-10.275h3.607l-0.5,10.275H80.398z"/></g></g><g display="none"><g display="inline"><path fill="#000000" d="M40.021,68.5l1.56-10.74h-4.86v-5.52h5.82l0.96-6.72h-5.1v-5.58h5.94l1.5-10.44h5.339l-1.5,10.44h5.46    L56.7,29.5h5.34l-1.561,10.44h4.8v5.58h-5.64l-0.96,6.72h4.98v5.52h-5.88l-1.5,10.74h-5.4l1.5-10.74h-5.46l-1.5,10.74H40.021z     M53.34,52.24l0.961-6.72h-5.46l-0.96,6.72H53.34z"/></g></g><g display="none"><g display="inline"><path fill="#000000" d="M23.707,56.214c1.826-5.77,4.357-11.541,7.067-15.958l5.417-0.471c-1.826,5.005-3.298,10.717-4.122,15.899    L23.707,56.214z M35.189,56.214c1.826-5.77,4.358-11.541,7.066-15.958l5.417-0.471c-1.766,5.005-3.296,10.717-4.122,15.899    L35.189,56.214z"/><path fill="#000000" d="M68.811,39.786c-1.825,5.771-4.417,11.541-7.066,15.958l-5.418,0.471    c1.767-5.005,3.298-10.716,4.122-15.898L68.811,39.786z M80.293,39.786c-1.825,5.771-4.358,11.541-7.066,15.958l-5.417,0.471    c1.767-5.005,3.298-10.716,4.122-15.898L80.293,39.786z"/></g></g><g display="none"><g display="inline"><path fill="#000000" d="M39.056,64.865v-3.889c2.544-1.056,5.376-3.792,5.376-7.057c0-0.672-0.048-1.248-0.144-1.92h-4.705v-4.944    h3.841c-0.24-1.2-0.384-2.592-0.384-3.888c0-6.049,4.416-10.033,10.848-10.033c2.641,0,4.609,0.576,5.666,1.152l-1.201,5.521    c-0.912-0.528-2.256-0.864-4.032-0.864c-3.408,0-4.464,2.208-4.464,4.513c0,1.248,0.144,2.399,0.432,3.6h6.576V52h-5.952    c0.048,1.2-0.048,2.305-0.432,3.408c-0.432,1.2-1.2,2.4-2.353,3.408v0.096h12.816v5.953H39.056z"/></g></g><g><path d="M50,16.407c-23.685,0-42.884,14.73-42.884,31.667c0,11.146,8.315,19.901,20.751,25.271c-0.95,3.583-3.035,7.22-6.408,10.23   c6.038,0.237,12.79-1.841,18.499-6.688C43.18,77.441,46.54,77.742,50,77.742c23.684,0,42.885-12.73,42.885-29.668   C92.885,31.137,73.684,16.407,50,16.407z M15.219,52.021c0,1.156,0.099,2.294,0.271,3.416c-1.97-2.502-3.072-5.37-3.072-8.57   c0-12.323,16.237-24.814,36.267-24.814c4.188,0,8.208,0.553,11.952,1.53c-2.404-0.364-4.891-0.559-7.434-0.559   C32.225,23.024,15.219,36.007,15.219,52.021z M53.161,63.689v4.896h-4.705v-4.561c-3.217-0.143-6.337-1.008-8.161-2.064l1.44-5.615   c2.017,1.104,4.849,2.111,7.969,2.111c2.736,0,4.608-1.057,4.608-2.977c0-1.824-1.536-2.977-5.089-4.176   c-5.136-1.729-8.641-4.128-8.641-8.785c0-4.225,2.977-7.537,8.113-8.545v-4.561H53.4v4.225c3.216,0.144,5.377,0.816,6.961,1.584   l-1.393,5.424c-1.247-0.528-3.456-1.632-6.912-1.632c-3.121,0-4.129,1.344-4.129,2.688c0,1.584,1.681,2.592,5.761,4.128   c5.713,2.016,8.017,4.656,8.017,8.977C61.705,59.082,58.681,62.73,53.161,63.689z"/></g><text x="0" y="115" fill="#000000" font-size="5px" font-weight="bold" font-family="'Helvetica Neue', Helvetica, Arial-Unicode, Arial, Sans-serif">Created by Martin Smith</text><text x="0" y="120" fill="#000000" font-size="5px" font-weight="bold" font-family="'Helvetica Neue', Helvetica, Arial-Unicode, Arial, Sans-serif">from the Noun Project</text></svg>