<svg xmlns="http://www.w3.org/2000/svg" xmlns:xlink="http://www.w3.org/1999/xlink" version="1.0" x="0px" y="0px" viewBox="0 0 100 125" enable-background="new 0 0 100 100" xml:space="preserve"><path fill="none" stroke="#000000" stroke-linecap="round" stroke-linejoin="round" stroke-miterlimit="10" d="M90,50  c0,22.086-17.911,40-39.999,40C27.908,90.001,10,72.087,10,50C10,27.909,27.908,9.999,50.001,9.999C72.089,9.999,90,27.909,90,50z"/><path fill="none" stroke="#000000" stroke-linecap="round" stroke-linejoin="round" stroke-miterlimit="10" d="M50.001,90.001  c7.513,0,14.542-2.081,20.547-5.684l-10.311-4.271c-0.863-0.359-1.641-0.878-2.289-1.526c-1.278-1.281-2.069-3.045-2.069-4.994  v-1.708c-1.825,1.099-3.807,1.708-5.881,1.708c-2.075,0-4.057-0.609-5.882-1.708v1.708c0,1.949-0.788,3.713-2.065,4.994  c-0.652,0.648-1.43,1.167-2.292,1.526l-10.311,4.271C35.456,87.92,42.486,90.001,50.001,90.001z"/><path fill="none" stroke="#000000" stroke-linecap="round" stroke-linejoin="round" stroke-miterlimit="10" d="M44.921,41.176  c-1.261,4.672-5.337,8.179-10.305,8.581c-0.609-1.417-0.95-2.978-0.95-4.619c0,1.641,0.34,3.202,0.95,4.619  C39.584,49.355,43.66,45.849,44.921,41.176z"/><path fill="none" stroke="#000000" stroke-linecap="round" stroke-linejoin="round" stroke-miterlimit="10" d="M66.334,45.628  v-2.823c0-4.345-1.709-8.281-4.475-11.208l-1.271,3.108c-6.546-2.71-14.117-2.926-21.179,0L38.138,31.6  c-2.766,2.924-4.471,6.861-4.471,11.206v2.823h-0.003c-2.13,0.755-3.664,2.767-3.664,5.155c0,4.684,2.377,8.471,5.334,8.604  c2.724,8.392,8.262,14.144,14.666,14.144s11.942-5.752,14.668-14.144c2.957-0.13,5.334-3.92,5.334-8.604  C70.001,48.396,68.464,46.384,66.334,45.628z"/><path fill="none" stroke="#000000" stroke-linecap="round" stroke-linejoin="round" stroke-miterlimit="10" d="M66.334,45.139  c0,2.128-0.581,4.115-1.573,5.831c-2.017-3.482-5.777-5.833-10.094-5.833h-0.003c-3.79,0-7.224-1.513-9.743-3.961  c-1.936-1.877-3.327-4.309-3.923-7.036c0.597,2.727,1.987,5.158,3.923,7.036c2.519,2.448,5.953,3.961,9.743,3.961h0.003  c4.316,0,8.077,2.351,10.094,5.833C65.753,49.253,66.334,47.267,66.334,45.139z"/><path fill="none" stroke="#000000" stroke-linecap="round" stroke-linejoin="round" stroke-miterlimit="10" d="M33.527,20.347  l5.882,14.359c7.062-2.926,14.633-2.71,21.179,0l5.882-14.359C56.289,16.129,44.509,15.8,33.527,20.347z"/><path fill="none" stroke="#000000" stroke-linecap="round" stroke-linejoin="round" stroke-miterlimit="10" d="M49.999,21.294v7.061  V21.294z"/><path fill="none" stroke="#000000" stroke-linecap="round" stroke-linejoin="round" stroke-miterlimit="10" d="M46.471,24.822h7.059  H46.471z"/><text x="0" y="115" fill="#000000" font-size="5px" font-weight="bold" font-family="'Helvetica Neue', Helvetica, Arial-Unicode, Arial, Sans-serif">Created by Danil Polshin</text><text x="0" y="120" fill="#000000" font-size="5px" font-weight="bold" font-family="'Helvetica Neue', Helvetica, Arial-Unicode, Arial, Sans-serif">from the Noun Project</text></svg>